<mxfile host="app.diagrams.net" modified="2022-06-21T15:56:36.393Z" agent="5.0 (Windows NT 10.0; Win64; x64) AppleWebKit/537.36 (KHTML, like Gecko) Chrome/102.0.0.0 Safari/537.36" etag="dw6HB_-cgN2IMik3K5RL" version="20.0.1" type="github">
  <diagram id="vuLMH9J_RhJpNWaf2Bdg" name="Page-1">
    <mxGraphModel dx="1185" dy="614" grid="1" gridSize="10" guides="1" tooltips="1" connect="1" arrows="1" fold="1" page="1" pageScale="1" pageWidth="827" pageHeight="1169" math="0" shadow="0">
      <root>
        <mxCell id="0" />
        <mxCell id="1" parent="0" />
        <mxCell id="z-soqtJbsbXI56dgfgmn-3" value="" style="endArrow=none;html=1;rounded=0;" parent="1" edge="1">
          <mxGeometry width="50" height="50" relative="1" as="geometry">
            <mxPoint x="40" y="40" as="sourcePoint" />
            <mxPoint x="1320" y="40" as="targetPoint" />
          </mxGeometry>
        </mxCell>
        <mxCell id="z-soqtJbsbXI56dgfgmn-4" value="" style="endArrow=none;html=1;rounded=0;" parent="1" edge="1">
          <mxGeometry width="50" height="50" relative="1" as="geometry">
            <mxPoint x="40" y="920" as="sourcePoint" />
            <mxPoint x="40" y="40" as="targetPoint" />
          </mxGeometry>
        </mxCell>
        <mxCell id="z-soqtJbsbXI56dgfgmn-5" value="" style="endArrow=none;html=1;rounded=0;" parent="1" edge="1">
          <mxGeometry width="50" height="50" relative="1" as="geometry">
            <mxPoint x="40" y="920" as="sourcePoint" />
            <mxPoint x="1320" y="920" as="targetPoint" />
          </mxGeometry>
        </mxCell>
        <mxCell id="z-soqtJbsbXI56dgfgmn-6" value="" style="endArrow=none;html=1;rounded=0;" parent="1" edge="1">
          <mxGeometry width="50" height="50" relative="1" as="geometry">
            <mxPoint x="1320" y="920" as="sourcePoint" />
            <mxPoint x="1320" y="40" as="targetPoint" />
          </mxGeometry>
        </mxCell>
        <mxCell id="z-soqtJbsbXI56dgfgmn-7" value="ВДК" style="text;html=1;align=center;verticalAlign=middle;resizable=0;points=[];autosize=1;strokeColor=none;fillColor=none;" parent="1" vertex="1">
          <mxGeometry x="660" y="50" width="40" height="20" as="geometry" />
        </mxCell>
        <mxCell id="z-soqtJbsbXI56dgfgmn-20" value="Шасси" style="text;html=1;align=center;verticalAlign=middle;resizable=0;points=[];autosize=1;strokeColor=none;fillColor=none;" parent="1" vertex="1">
          <mxGeometry x="170" y="90" width="50" height="20" as="geometry" />
        </mxCell>
        <mxCell id="z-soqtJbsbXI56dgfgmn-21" value="Система управления ВДК" style="text;html=1;align=center;verticalAlign=middle;resizable=0;points=[];autosize=1;strokeColor=none;fillColor=none;" parent="1" vertex="1">
          <mxGeometry x="740" y="90" width="160" height="20" as="geometry" />
        </mxCell>
        <mxCell id="z-soqtJbsbXI56dgfgmn-31" value="Подсистема упр. Двигателями" style="text;html=1;align=center;verticalAlign=middle;resizable=0;points=[];autosize=1;strokeColor=none;fillColor=none;" parent="1" vertex="1">
          <mxGeometry x="530" y="129.41" width="180" height="20" as="geometry" />
        </mxCell>
        <mxCell id="z-soqtJbsbXI56dgfgmn-32" value="Подсистема навигации" style="text;html=1;align=center;verticalAlign=middle;resizable=0;points=[];autosize=1;strokeColor=none;fillColor=none;" parent="1" vertex="1">
          <mxGeometry x="985" y="129.41" width="140" height="20" as="geometry" />
        </mxCell>
        <mxCell id="z-soqtJbsbXI56dgfgmn-33" value="Электродвигатель" style="rounded=0;whiteSpace=wrap;html=1;" parent="1" vertex="1">
          <mxGeometry x="414" y="160" width="106" height="20" as="geometry" />
        </mxCell>
        <mxCell id="z-soqtJbsbXI56dgfgmn-37" value="" style="endArrow=none;dashed=1;html=1;rounded=0;" parent="1" edge="1">
          <mxGeometry width="50" height="50" relative="1" as="geometry">
            <mxPoint x="80" y="870" as="sourcePoint" />
            <mxPoint x="80" y="80" as="targetPoint" />
          </mxGeometry>
        </mxCell>
        <mxCell id="z-soqtJbsbXI56dgfgmn-39" value="" style="endArrow=none;dashed=1;html=1;rounded=0;" parent="1" edge="1">
          <mxGeometry width="50" height="50" relative="1" as="geometry">
            <mxPoint x="320" y="880" as="sourcePoint" />
            <mxPoint x="320" y="80" as="targetPoint" />
          </mxGeometry>
        </mxCell>
        <mxCell id="z-soqtJbsbXI56dgfgmn-40" value="" style="endArrow=none;dashed=1;html=1;rounded=0;" parent="1" edge="1">
          <mxGeometry width="50" height="50" relative="1" as="geometry">
            <mxPoint x="360" y="880" as="sourcePoint" />
            <mxPoint x="360" y="80" as="targetPoint" />
          </mxGeometry>
        </mxCell>
        <mxCell id="z-soqtJbsbXI56dgfgmn-41" value="" style="endArrow=none;dashed=1;html=1;rounded=0;" parent="1" edge="1">
          <mxGeometry width="50" height="50" relative="1" as="geometry">
            <mxPoint x="1280" y="880" as="sourcePoint" />
            <mxPoint x="1280" y="80" as="targetPoint" />
          </mxGeometry>
        </mxCell>
        <mxCell id="z-soqtJbsbXI56dgfgmn-42" value="" style="endArrow=none;dashed=1;html=1;rounded=0;" parent="1" edge="1">
          <mxGeometry width="50" height="50" relative="1" as="geometry">
            <mxPoint x="360" y="880" as="sourcePoint" />
            <mxPoint x="1280" y="880" as="targetPoint" />
          </mxGeometry>
        </mxCell>
        <mxCell id="z-soqtJbsbXI56dgfgmn-43" value="" style="endArrow=none;dashed=1;html=1;rounded=0;" parent="1" edge="1">
          <mxGeometry width="50" height="50" relative="1" as="geometry">
            <mxPoint x="360" y="80" as="sourcePoint" />
            <mxPoint x="1280" y="80" as="targetPoint" />
          </mxGeometry>
        </mxCell>
        <mxCell id="z-soqtJbsbXI56dgfgmn-44" value="" style="endArrow=none;dashed=1;html=1;rounded=0;" parent="1" edge="1">
          <mxGeometry width="50" height="50" relative="1" as="geometry">
            <mxPoint x="320" y="80" as="sourcePoint" />
            <mxPoint x="80" y="80" as="targetPoint" />
          </mxGeometry>
        </mxCell>
        <mxCell id="z-soqtJbsbXI56dgfgmn-45" value="" style="endArrow=none;dashed=1;html=1;rounded=0;" parent="1" edge="1">
          <mxGeometry width="50" height="50" relative="1" as="geometry">
            <mxPoint x="315" y="880" as="sourcePoint" />
            <mxPoint x="75" y="880" as="targetPoint" />
          </mxGeometry>
        </mxCell>
        <mxCell id="z-soqtJbsbXI56dgfgmn-46" value="" style="endArrow=none;dashed=1;html=1;rounded=0;" parent="1" edge="1">
          <mxGeometry width="50" height="50" relative="1" as="geometry">
            <mxPoint x="400" y="640" as="sourcePoint" />
            <mxPoint x="400" y="120" as="targetPoint" />
          </mxGeometry>
        </mxCell>
        <mxCell id="z-soqtJbsbXI56dgfgmn-48" value="" style="endArrow=none;dashed=1;html=1;rounded=0;" parent="1" edge="1">
          <mxGeometry width="50" height="50" relative="1" as="geometry">
            <mxPoint x="840" y="640" as="sourcePoint" />
            <mxPoint x="840" y="120" as="targetPoint" />
          </mxGeometry>
        </mxCell>
        <mxCell id="z-soqtJbsbXI56dgfgmn-49" value="" style="endArrow=none;dashed=1;html=1;rounded=0;" parent="1" edge="1">
          <mxGeometry width="50" height="50" relative="1" as="geometry">
            <mxPoint x="1239" y="640" as="sourcePoint" />
            <mxPoint x="1239" y="119.41" as="targetPoint" />
          </mxGeometry>
        </mxCell>
        <mxCell id="z-soqtJbsbXI56dgfgmn-50" value="" style="endArrow=none;dashed=1;html=1;rounded=0;" parent="1" edge="1">
          <mxGeometry width="50" height="50" relative="1" as="geometry">
            <mxPoint x="800" y="640" as="sourcePoint" />
            <mxPoint x="800" y="120" as="targetPoint" />
          </mxGeometry>
        </mxCell>
        <mxCell id="z-soqtJbsbXI56dgfgmn-51" value="" style="endArrow=none;dashed=1;html=1;rounded=0;" parent="1" edge="1">
          <mxGeometry width="50" height="50" relative="1" as="geometry">
            <mxPoint x="800" y="120" as="sourcePoint" />
            <mxPoint x="400" y="120" as="targetPoint" />
          </mxGeometry>
        </mxCell>
        <mxCell id="z-soqtJbsbXI56dgfgmn-55" value="" style="endArrow=none;dashed=1;html=1;rounded=0;" parent="1" edge="1">
          <mxGeometry width="50" height="50" relative="1" as="geometry">
            <mxPoint x="1241" y="640.4100000000001" as="sourcePoint" />
            <mxPoint x="842" y="640" as="targetPoint" />
          </mxGeometry>
        </mxCell>
        <mxCell id="z-soqtJbsbXI56dgfgmn-56" value="" style="endArrow=none;dashed=1;html=1;rounded=0;" parent="1" edge="1">
          <mxGeometry width="50" height="50" relative="1" as="geometry">
            <mxPoint x="1239" y="119.41" as="sourcePoint" />
            <mxPoint x="840" y="119" as="targetPoint" />
          </mxGeometry>
        </mxCell>
        <mxCell id="z-soqtJbsbXI56dgfgmn-58" value="ПО" style="rounded=0;whiteSpace=wrap;html=1;" parent="1" vertex="1">
          <mxGeometry x="617" y="430" width="120" height="40" as="geometry" />
        </mxCell>
        <mxCell id="z-soqtJbsbXI56dgfgmn-59" value="Микроконтроллер" style="rounded=0;whiteSpace=wrap;html=1;" parent="1" vertex="1">
          <mxGeometry x="1121" y="760" width="120" height="40" as="geometry" />
        </mxCell>
        <mxCell id="z-soqtJbsbXI56dgfgmn-62" value="Ультразвуковой датчик (Цент.)" style="rounded=0;whiteSpace=wrap;html=1;" parent="1" vertex="1">
          <mxGeometry x="850" y="160" width="110" height="40" as="geometry" />
        </mxCell>
        <mxCell id="z-soqtJbsbXI56dgfgmn-77" value="Электродвигатель" style="rounded=0;whiteSpace=wrap;html=1;" parent="1" vertex="1">
          <mxGeometry x="414" y="233" width="106" height="20" as="geometry" />
        </mxCell>
        <mxCell id="z-soqtJbsbXI56dgfgmn-100" value="ПО" style="rounded=0;whiteSpace=wrap;html=1;" parent="1" vertex="1">
          <mxGeometry x="1100" y="430" width="120" height="70" as="geometry" />
        </mxCell>
        <mxCell id="z-soqtJbsbXI56dgfgmn-101" value="Ультразвуковой датчик (Лев.)" style="rounded=0;whiteSpace=wrap;html=1;" parent="1" vertex="1">
          <mxGeometry x="850" y="210" width="110" height="40" as="geometry" />
        </mxCell>
        <mxCell id="z-soqtJbsbXI56dgfgmn-102" value="Ультразвуковой датчик (Прав.)" style="rounded=0;whiteSpace=wrap;html=1;" parent="1" vertex="1">
          <mxGeometry x="850" y="260" width="110" height="40" as="geometry" />
        </mxCell>
        <mxCell id="z-soqtJbsbXI56dgfgmn-107" value="" style="endArrow=none;dashed=1;html=1;rounded=0;" parent="1" edge="1">
          <mxGeometry width="50" height="50" relative="1" as="geometry">
            <mxPoint x="799" y="640.4100000000001" as="sourcePoint" />
            <mxPoint x="400" y="640" as="targetPoint" />
          </mxGeometry>
        </mxCell>
        <mxCell id="z-soqtJbsbXI56dgfgmn-110" value="Энкодер" style="rounded=0;whiteSpace=wrap;html=1;" parent="1" vertex="1">
          <mxGeometry x="400" y="750" width="60" height="20" as="geometry" />
        </mxCell>
        <mxCell id="z-soqtJbsbXI56dgfgmn-111" value="Энкодер" style="rounded=0;whiteSpace=wrap;html=1;" parent="1" vertex="1">
          <mxGeometry x="400" y="780" width="60" height="20" as="geometry" />
        </mxCell>
        <mxCell id="z-soqtJbsbXI56dgfgmn-116" value="" style="endArrow=classic;html=1;rounded=0;exitX=0.5;exitY=1;exitDx=0;exitDy=0;entryX=0.75;entryY=0;entryDx=0;entryDy=0;" parent="1" source="z-soqtJbsbXI56dgfgmn-100" target="z-soqtJbsbXI56dgfgmn-118" edge="1">
          <mxGeometry width="50" height="50" relative="1" as="geometry">
            <mxPoint x="590" y="520" as="sourcePoint" />
            <mxPoint x="1140" y="510" as="targetPoint" />
          </mxGeometry>
        </mxCell>
        <mxCell id="z-soqtJbsbXI56dgfgmn-118" value="Передает команду о повороте движения ВДК.&lt;br&gt;Также записывает данные о пройденном расстоянии" style="rounded=0;whiteSpace=wrap;html=1;" parent="1" vertex="1">
          <mxGeometry x="1040" y="520" width="160" height="80" as="geometry" />
        </mxCell>
        <mxCell id="z-soqtJbsbXI56dgfgmn-124" value="Исходя из скорости двигателя изменяется сила тока в цепи" style="rounded=0;whiteSpace=wrap;html=1;" parent="1" vertex="1">
          <mxGeometry x="97.5" y="340" width="192.5" height="60" as="geometry" />
        </mxCell>
        <mxCell id="z-soqtJbsbXI56dgfgmn-125" value="" style="endArrow=classic;html=1;rounded=0;exitX=0;exitY=0.5;exitDx=0;exitDy=0;" parent="1" source="z-soqtJbsbXI56dgfgmn-33" edge="1">
          <mxGeometry width="50" height="50" relative="1" as="geometry">
            <mxPoint x="410" y="420" as="sourcePoint" />
            <mxPoint x="120" y="340" as="targetPoint" />
            <Array as="points">
              <mxPoint x="120" y="170" />
            </Array>
          </mxGeometry>
        </mxCell>
        <mxCell id="z-soqtJbsbXI56dgfgmn-127" value="" style="endArrow=classic;html=1;rounded=0;exitX=0;exitY=0.5;exitDx=0;exitDy=0;entryX=0.75;entryY=0;entryDx=0;entryDy=0;" parent="1" source="z-soqtJbsbXI56dgfgmn-77" edge="1" target="z-soqtJbsbXI56dgfgmn-124">
          <mxGeometry width="50" height="50" relative="1" as="geometry">
            <mxPoint x="410" y="420" as="sourcePoint" />
            <mxPoint x="170" y="340" as="targetPoint" />
            <Array as="points">
              <mxPoint x="242" y="243" />
            </Array>
          </mxGeometry>
        </mxCell>
        <mxCell id="z-soqtJbsbXI56dgfgmn-130" value="" style="endArrow=classic;html=1;rounded=0;exitX=0.75;exitY=1;exitDx=0;exitDy=0;entryX=0.75;entryY=0;entryDx=0;entryDy=0;" parent="1" source="z-soqtJbsbXI56dgfgmn-118" target="z-soqtJbsbXI56dgfgmn-59" edge="1">
          <mxGeometry width="50" height="50" relative="1" as="geometry">
            <mxPoint x="460" y="500" as="sourcePoint" />
            <mxPoint x="510" y="450" as="targetPoint" />
            <Array as="points">
              <mxPoint x="1160" y="680" />
              <mxPoint x="1211" y="680" />
            </Array>
          </mxGeometry>
        </mxCell>
        <mxCell id="z-soqtJbsbXI56dgfgmn-131" value="передает дискретный сигнал характеризующий наличие УЗ на входе" style="rounded=0;whiteSpace=wrap;html=1;" parent="1" vertex="1">
          <mxGeometry x="1091.25" y="320" width="137.5" height="70" as="geometry" />
        </mxCell>
        <mxCell id="z-soqtJbsbXI56dgfgmn-132" value="" style="endArrow=classic;html=1;rounded=0;exitX=0.25;exitY=1;exitDx=0;exitDy=0;entryX=0.25;entryY=0;entryDx=0;entryDy=0;" parent="1" source="z-soqtJbsbXI56dgfgmn-131" target="z-soqtJbsbXI56dgfgmn-100" edge="1">
          <mxGeometry width="50" height="50" relative="1" as="geometry">
            <mxPoint x="460" y="480" as="sourcePoint" />
            <mxPoint x="510" y="430" as="targetPoint" />
            <Array as="points">
              <mxPoint x="1126" y="410" />
              <mxPoint x="1130" y="410" />
            </Array>
          </mxGeometry>
        </mxCell>
        <mxCell id="z-soqtJbsbXI56dgfgmn-133" value="" style="endArrow=classic;html=1;rounded=0;exitX=0.5;exitY=1;exitDx=0;exitDy=0;entryX=0.5;entryY=0;entryDx=0;entryDy=0;" parent="1" source="z-soqtJbsbXI56dgfgmn-131" target="z-soqtJbsbXI56dgfgmn-100" edge="1">
          <mxGeometry width="50" height="50" relative="1" as="geometry">
            <mxPoint x="1180" y="430" as="sourcePoint" />
            <mxPoint x="1230" y="380" as="targetPoint" />
          </mxGeometry>
        </mxCell>
        <mxCell id="z-soqtJbsbXI56dgfgmn-134" value="" style="endArrow=classic;html=1;rounded=0;exitX=0.75;exitY=1;exitDx=0;exitDy=0;entryX=0.75;entryY=0;entryDx=0;entryDy=0;" parent="1" source="z-soqtJbsbXI56dgfgmn-131" target="z-soqtJbsbXI56dgfgmn-100" edge="1">
          <mxGeometry width="50" height="50" relative="1" as="geometry">
            <mxPoint x="1170" y="390" as="sourcePoint" />
            <mxPoint x="1170" y="440" as="targetPoint" />
            <Array as="points">
              <mxPoint x="1194" y="410" />
              <mxPoint x="1190" y="410" />
            </Array>
          </mxGeometry>
        </mxCell>
        <mxCell id="z-soqtJbsbXI56dgfgmn-135" value="" style="endArrow=classic;html=1;rounded=0;exitX=1;exitY=0.5;exitDx=0;exitDy=0;entryX=0.25;entryY=0;entryDx=0;entryDy=0;" parent="1" source="z-soqtJbsbXI56dgfgmn-102" target="z-soqtJbsbXI56dgfgmn-131" edge="1">
          <mxGeometry width="50" height="50" relative="1" as="geometry">
            <mxPoint x="1020" y="270" as="sourcePoint" />
            <mxPoint x="1070" y="220" as="targetPoint" />
            <Array as="points">
              <mxPoint x="1126" y="280" />
            </Array>
          </mxGeometry>
        </mxCell>
        <mxCell id="z-soqtJbsbXI56dgfgmn-136" value="" style="endArrow=classic;html=1;rounded=0;entryX=0.5;entryY=0;entryDx=0;entryDy=0;exitX=1;exitY=0.5;exitDx=0;exitDy=0;" parent="1" source="z-soqtJbsbXI56dgfgmn-101" target="z-soqtJbsbXI56dgfgmn-131" edge="1">
          <mxGeometry width="50" height="50" relative="1" as="geometry">
            <mxPoint x="1020" y="270" as="sourcePoint" />
            <mxPoint x="1070" y="220" as="targetPoint" />
            <Array as="points">
              <mxPoint x="1160" y="230" />
            </Array>
          </mxGeometry>
        </mxCell>
        <mxCell id="z-soqtJbsbXI56dgfgmn-137" value="" style="endArrow=classic;html=1;rounded=0;entryX=0.75;entryY=0;entryDx=0;entryDy=0;exitX=1;exitY=0.5;exitDx=0;exitDy=0;" parent="1" source="z-soqtJbsbXI56dgfgmn-62" target="z-soqtJbsbXI56dgfgmn-131" edge="1">
          <mxGeometry width="50" height="50" relative="1" as="geometry">
            <mxPoint x="1020" y="270" as="sourcePoint" />
            <mxPoint x="1070" y="220" as="targetPoint" />
            <Array as="points">
              <mxPoint x="1194" y="180" />
            </Array>
          </mxGeometry>
        </mxCell>
        <mxCell id="z-soqtJbsbXI56dgfgmn-141" value="" style="endArrow=classic;html=1;rounded=0;exitX=1;exitY=0.5;exitDx=0;exitDy=0;" parent="1" source="z-soqtJbsbXI56dgfgmn-111" edge="1">
          <mxGeometry width="50" height="50" relative="1" as="geometry">
            <mxPoint x="660" y="640" as="sourcePoint" />
            <mxPoint x="480" y="790" as="targetPoint" />
          </mxGeometry>
        </mxCell>
        <mxCell id="z-soqtJbsbXI56dgfgmn-142" value="" style="endArrow=classic;html=1;rounded=0;exitX=1;exitY=0.5;exitDx=0;exitDy=0;" parent="1" source="z-soqtJbsbXI56dgfgmn-110" edge="1">
          <mxGeometry width="50" height="50" relative="1" as="geometry">
            <mxPoint x="470" y="770" as="sourcePoint" />
            <mxPoint x="480" y="760" as="targetPoint" />
          </mxGeometry>
        </mxCell>
        <mxCell id="z-soqtJbsbXI56dgfgmn-145" value="Передает аналоговый сигнал&amp;nbsp;" style="rounded=0;whiteSpace=wrap;html=1;" parent="1" vertex="1">
          <mxGeometry x="480" y="700" width="140" height="150" as="geometry" />
        </mxCell>
        <mxCell id="z-soqtJbsbXI56dgfgmn-146" value="" style="endArrow=classic;html=1;rounded=0;exitX=0.117;exitY=1;exitDx=0;exitDy=0;exitPerimeter=0;" parent="1" source="z-soqtJbsbXI56dgfgmn-124" edge="1">
          <mxGeometry width="50" height="50" relative="1" as="geometry">
            <mxPoint x="120" y="500" as="sourcePoint" />
            <mxPoint x="120" y="640" as="targetPoint" />
          </mxGeometry>
        </mxCell>
        <mxCell id="z-soqtJbsbXI56dgfgmn-148" value="" style="endArrow=classic;html=1;rounded=0;" parent="1" edge="1">
          <mxGeometry width="50" height="50" relative="1" as="geometry">
            <mxPoint x="243" y="400" as="sourcePoint" />
            <mxPoint x="243" y="640" as="targetPoint" />
          </mxGeometry>
        </mxCell>
        <mxCell id="z-soqtJbsbXI56dgfgmn-150" value="Энкодер фиксирует изменение силы тока в цепи" style="rounded=0;whiteSpace=wrap;html=1;" parent="1" vertex="1">
          <mxGeometry x="97.5" y="640" width="192.5" height="60" as="geometry" />
        </mxCell>
        <mxCell id="z-soqtJbsbXI56dgfgmn-151" value="" style="endArrow=classic;html=1;rounded=0;exitX=0.25;exitY=0;exitDx=0;exitDy=0;" parent="1" source="z-soqtJbsbXI56dgfgmn-59" edge="1">
          <mxGeometry width="50" height="50" relative="1" as="geometry">
            <mxPoint x="600" y="600" as="sourcePoint" />
            <mxPoint x="760" y="610" as="targetPoint" />
            <Array as="points">
              <mxPoint x="1150" y="680" />
              <mxPoint x="760" y="680" />
            </Array>
          </mxGeometry>
        </mxCell>
        <mxCell id="z-soqtJbsbXI56dgfgmn-155" value="" style="endArrow=classic;html=1;rounded=0;entryX=0;entryY=0.5;entryDx=0;entryDy=0;exitX=0.765;exitY=1.006;exitDx=0;exitDy=0;exitPerimeter=0;" parent="1" target="z-soqtJbsbXI56dgfgmn-110" edge="1" source="z-soqtJbsbXI56dgfgmn-150">
          <mxGeometry width="50" height="50" relative="1" as="geometry">
            <mxPoint x="220" y="700" as="sourcePoint" />
            <mxPoint x="350" y="730" as="targetPoint" />
            <Array as="points">
              <mxPoint x="245" y="760" />
            </Array>
          </mxGeometry>
        </mxCell>
        <mxCell id="z-soqtJbsbXI56dgfgmn-156" value="" style="endArrow=classic;html=1;rounded=0;entryX=0;entryY=0.5;entryDx=0;entryDy=0;" parent="1" target="z-soqtJbsbXI56dgfgmn-111" edge="1">
          <mxGeometry width="50" height="50" relative="1" as="geometry">
            <mxPoint x="120" y="700" as="sourcePoint" />
            <mxPoint x="300" y="730" as="targetPoint" />
            <Array as="points">
              <mxPoint x="120" y="790" />
            </Array>
          </mxGeometry>
        </mxCell>
        <mxCell id="z-soqtJbsbXI56dgfgmn-161" value="" style="endArrow=classic;html=1;rounded=0;entryX=0.001;entryY=0.163;entryDx=0;entryDy=0;entryPerimeter=0;" parent="1" edge="1">
          <mxGeometry width="50" height="50" relative="1" as="geometry">
            <mxPoint x="620" y="753" as="sourcePoint" />
            <mxPoint x="1100.1200000000001" y="464.40999999999997" as="targetPoint" />
            <Array as="points">
              <mxPoint x="880" y="753" />
              <mxPoint x="880" y="463" />
            </Array>
          </mxGeometry>
        </mxCell>
        <mxCell id="z-soqtJbsbXI56dgfgmn-162" value="" style="endArrow=classic;html=1;rounded=0;entryX=0.001;entryY=0.392;entryDx=0;entryDy=0;entryPerimeter=0;" parent="1" edge="1">
          <mxGeometry width="50" height="50" relative="1" as="geometry">
            <mxPoint x="620" y="788" as="sourcePoint" />
            <mxPoint x="1100.12" y="485.43999999999994" as="targetPoint" />
            <Array as="points">
              <mxPoint x="890" y="788" />
              <mxPoint x="890" y="485" />
            </Array>
          </mxGeometry>
        </mxCell>
        <mxCell id="z-soqtJbsbXI56dgfgmn-166" value="" style="endArrow=classic;html=1;rounded=0;entryX=0.258;entryY=1.01;entryDx=0;entryDy=0;entryPerimeter=0;" parent="1" target="z-soqtJbsbXI56dgfgmn-58" edge="1">
          <mxGeometry width="50" height="50" relative="1" as="geometry">
            <mxPoint x="647" y="788" as="sourcePoint" />
            <mxPoint x="650" y="470" as="targetPoint" />
          </mxGeometry>
        </mxCell>
        <mxCell id="z-soqtJbsbXI56dgfgmn-169" value="Передает команду о повороте движения ВДК" style="rounded=0;whiteSpace=wrap;html=1;" parent="1" vertex="1">
          <mxGeometry x="700" y="520" width="90" height="90" as="geometry" />
        </mxCell>
        <mxCell id="z-soqtJbsbXI56dgfgmn-170" value="" style="endArrow=classic;html=1;rounded=0;exitX=0.192;exitY=0.012;exitDx=0;exitDy=0;exitPerimeter=0;entryX=0.832;entryY=1.017;entryDx=0;entryDy=0;entryPerimeter=0;" parent="1" source="z-soqtJbsbXI56dgfgmn-169" target="z-soqtJbsbXI56dgfgmn-58" edge="1">
          <mxGeometry width="50" height="50" relative="1" as="geometry">
            <mxPoint x="740" y="460" as="sourcePoint" />
            <mxPoint x="720" y="470" as="targetPoint" />
          </mxGeometry>
        </mxCell>
        <mxCell id="z-soqtJbsbXI56dgfgmn-171" value="" style="endArrow=classic;html=1;rounded=0;exitX=0.5;exitY=0;exitDx=0;exitDy=0;" parent="1" source="z-soqtJbsbXI56dgfgmn-58" edge="1">
          <mxGeometry width="50" height="50" relative="1" as="geometry">
            <mxPoint x="720" y="560" as="sourcePoint" />
            <mxPoint x="677" y="400" as="targetPoint" />
          </mxGeometry>
        </mxCell>
        <mxCell id="z-soqtJbsbXI56dgfgmn-172" value="В зависимости от полученных данных передает дискретный ШИМ сигнал на каждый Двухк. Драйвер. для регуляции работы двигателей" style="rounded=0;whiteSpace=wrap;html=1;" parent="1" vertex="1">
          <mxGeometry x="600" y="300" width="140" height="100" as="geometry" />
        </mxCell>
        <mxCell id="z-soqtJbsbXI56dgfgmn-175" value="" style="endArrow=classic;html=1;rounded=0;entryX=1;entryY=0.75;entryDx=0;entryDy=0;" parent="1" edge="1" target="YbCdMVrvUSvIpddXmQIy-1">
          <mxGeometry width="50" height="50" relative="1" as="geometry">
            <mxPoint x="740" y="360" as="sourcePoint" />
            <mxPoint x="737" y="200" as="targetPoint" />
            <Array as="points">
              <mxPoint x="770" y="360" />
              <mxPoint x="770" y="242" />
            </Array>
          </mxGeometry>
        </mxCell>
        <mxCell id="z-soqtJbsbXI56dgfgmn-176" value="" style="endArrow=classic;html=1;rounded=0;entryX=1;entryY=0.5;entryDx=0;entryDy=0;" parent="1" edge="1">
          <mxGeometry width="50" height="50" relative="1" as="geometry">
            <mxPoint x="740" y="370" as="sourcePoint" />
            <mxPoint x="737" y="170" as="targetPoint" />
            <Array as="points">
              <mxPoint x="780" y="370" />
              <mxPoint x="780" y="170" />
            </Array>
          </mxGeometry>
        </mxCell>
        <mxCell id="z-soqtJbsbXI56dgfgmn-177" value="" style="endArrow=classic;html=1;rounded=0;entryX=0.108;entryY=1.008;entryDx=0;entryDy=0;entryPerimeter=0;" parent="1" edge="1" target="z-soqtJbsbXI56dgfgmn-58">
          <mxGeometry width="50" height="50" relative="1" as="geometry">
            <mxPoint x="630" y="753" as="sourcePoint" />
            <mxPoint x="630" y="493" as="targetPoint" />
          </mxGeometry>
        </mxCell>
        <mxCell id="z-soqtJbsbXI56dgfgmn-179" value="Двухканальные драйвера передают ток в зависимости от сигнала&amp;nbsp;на входе" style="rounded=0;whiteSpace=wrap;html=1;" parent="1" vertex="1">
          <mxGeometry x="540" y="160" width="90" height="110" as="geometry" />
        </mxCell>
        <mxCell id="z-soqtJbsbXI56dgfgmn-180" value="" style="endArrow=classic;html=1;rounded=0;entryX=1;entryY=0.5;entryDx=0;entryDy=0;exitX=-0.003;exitY=0.091;exitDx=0;exitDy=0;exitPerimeter=0;" parent="1" source="z-soqtJbsbXI56dgfgmn-179" target="z-soqtJbsbXI56dgfgmn-33" edge="1">
          <mxGeometry width="50" height="50" relative="1" as="geometry">
            <mxPoint x="590" y="260" as="sourcePoint" />
            <mxPoint x="640" y="210" as="targetPoint" />
          </mxGeometry>
        </mxCell>
        <mxCell id="z-soqtJbsbXI56dgfgmn-181" value="" style="endArrow=classic;html=1;rounded=0;exitX=0;exitY=0.5;exitDx=0;exitDy=0;" parent="1" edge="1">
          <mxGeometry width="50" height="50" relative="1" as="geometry">
            <mxPoint x="650" y="170" as="sourcePoint" />
            <mxPoint x="630" y="170" as="targetPoint" />
          </mxGeometry>
        </mxCell>
        <mxCell id="z-soqtJbsbXI56dgfgmn-182" value="" style="endArrow=classic;html=1;rounded=0;entryX=1;entryY=0.5;entryDx=0;entryDy=0;exitX=0;exitY=0.75;exitDx=0;exitDy=0;" parent="1" target="z-soqtJbsbXI56dgfgmn-77" edge="1" source="z-soqtJbsbXI56dgfgmn-179">
          <mxGeometry width="50" height="50" relative="1" as="geometry">
            <mxPoint x="540" y="200" as="sourcePoint" />
            <mxPoint x="530" y="180" as="targetPoint" />
          </mxGeometry>
        </mxCell>
        <mxCell id="z-soqtJbsbXI56dgfgmn-185" value="" style="endArrow=classic;html=1;rounded=0;exitX=0;exitY=0.5;exitDx=0;exitDy=0;" parent="1" edge="1">
          <mxGeometry width="50" height="50" relative="1" as="geometry">
            <mxPoint x="650" y="243" as="sourcePoint" />
            <mxPoint x="630" y="243" as="targetPoint" />
          </mxGeometry>
        </mxCell>
        <mxCell id="YbCdMVrvUSvIpddXmQIy-1" value="Двухканальный драйвер" style="rounded=0;whiteSpace=wrap;html=1;" parent="1" vertex="1">
          <mxGeometry x="650" y="160" width="87" height="110" as="geometry" />
        </mxCell>
        <mxCell id="pOza7NLIhyJmc0-nnS70-1" value="" style="endArrow=classic;html=1;rounded=0;exitX=0;exitY=0.75;exitDx=0;exitDy=0;" parent="1" source="z-soqtJbsbXI56dgfgmn-59" edge="1">
          <mxGeometry width="50" height="50" relative="1" as="geometry">
            <mxPoint x="955" y="579.9999999999999" as="sourcePoint" />
            <mxPoint x="980" y="410" as="targetPoint" />
            <Array as="points">
              <mxPoint x="980" y="790" />
            </Array>
          </mxGeometry>
        </mxCell>
        <mxCell id="pOza7NLIhyJmc0-nnS70-2" value="" style="endArrow=classic;html=1;rounded=0;exitX=0;exitY=0.5;exitDx=0;exitDy=0;" parent="1" source="z-soqtJbsbXI56dgfgmn-59" edge="1">
          <mxGeometry width="50" height="50" relative="1" as="geometry">
            <mxPoint x="1100" y="780" as="sourcePoint" />
            <mxPoint x="990" y="410" as="targetPoint" />
            <Array as="points">
              <mxPoint x="990" y="780" />
            </Array>
          </mxGeometry>
        </mxCell>
        <mxCell id="pOza7NLIhyJmc0-nnS70-3" value="" style="endArrow=classic;html=1;rounded=0;exitX=0;exitY=0.25;exitDx=0;exitDy=0;" parent="1" source="z-soqtJbsbXI56dgfgmn-59" edge="1">
          <mxGeometry width="50" height="50" relative="1" as="geometry">
            <mxPoint x="1141" y="810" as="sourcePoint" />
            <mxPoint x="1000" y="410" as="targetPoint" />
            <Array as="points">
              <mxPoint x="1000" y="770" />
            </Array>
          </mxGeometry>
        </mxCell>
        <mxCell id="pOza7NLIhyJmc0-nnS70-4" value="Подает дискретный сигнал для отправки УЗ" style="rounded=0;whiteSpace=wrap;html=1;" parent="1" vertex="1">
          <mxGeometry x="930" y="350" width="120" height="60" as="geometry" />
        </mxCell>
        <mxCell id="pOza7NLIhyJmc0-nnS70-5" value="" style="endArrow=classic;html=1;rounded=0;exitX=0.415;exitY=0.013;exitDx=0;exitDy=0;exitPerimeter=0;entryX=1;entryY=0.75;entryDx=0;entryDy=0;" parent="1" source="pOza7NLIhyJmc0-nnS70-4" target="z-soqtJbsbXI56dgfgmn-102" edge="1">
          <mxGeometry width="50" height="50" relative="1" as="geometry">
            <mxPoint x="950" y="490" as="sourcePoint" />
            <mxPoint x="1000" y="440" as="targetPoint" />
            <Array as="points">
              <mxPoint x="980" y="290" />
            </Array>
          </mxGeometry>
        </mxCell>
        <mxCell id="pOza7NLIhyJmc0-nnS70-6" value="" style="endArrow=classic;html=1;rounded=0;exitX=0.5;exitY=0;exitDx=0;exitDy=0;entryX=1;entryY=0.75;entryDx=0;entryDy=0;" parent="1" source="pOza7NLIhyJmc0-nnS70-4" target="z-soqtJbsbXI56dgfgmn-101" edge="1">
          <mxGeometry width="50" height="50" relative="1" as="geometry">
            <mxPoint x="979.8" y="300.78" as="sourcePoint" />
            <mxPoint x="970" y="260" as="targetPoint" />
            <Array as="points">
              <mxPoint x="990" y="240" />
            </Array>
          </mxGeometry>
        </mxCell>
        <mxCell id="pOza7NLIhyJmc0-nnS70-7" value="" style="endArrow=classic;html=1;rounded=0;entryX=1;entryY=0.75;entryDx=0;entryDy=0;" parent="1" target="z-soqtJbsbXI56dgfgmn-62" edge="1">
          <mxGeometry width="50" height="50" relative="1" as="geometry">
            <mxPoint x="1001" y="350" as="sourcePoint" />
            <mxPoint x="970" y="300" as="targetPoint" />
            <Array as="points">
              <mxPoint x="1001" y="190" />
            </Array>
          </mxGeometry>
        </mxCell>
      </root>
    </mxGraphModel>
  </diagram>
</mxfile>
